<?xml version="1.0" standalone="no"?>
<!DOCTYPE svg PUBLIC "-//W3C//DTD SVG 20010904//EN"
 "http://www.w3.org/TR/2001/REC-SVG-20010904/DTD/svg10.dtd">
<svg version="1.0" xmlns="http://www.w3.org/2000/svg"
 width="1202.000000pt" height="1280.000000pt" viewBox="0 0 1202.000000 1280.000000"
 preserveAspectRatio="xMidYMid meet">
<metadata>
Created by potrace 1.15, written by Peter Selinger 2001-2017
</metadata>
<g transform="translate(0.000000,1280.000000) scale(0.100000,-0.100000)"
fill="#000000" stroke="none">
<path d="M4862 12790 c-180 -14 -246 -36 -357 -120 -35 -26 -59 -33 -160 -49
-136 -21 -239 -53 -371 -116 -73 -34 -110 -60 -184 -129 -128 -120 -148 -121
-310 -26 -152 90 -299 130 -478 130 -243 0 -445 -85 -619 -262 -147 -148 -233
-294 -274 -463 -26 -108 -24 -200 6 -314 53 -203 28 -243 -165 -256 -58 -4
-133 -16 -167 -26 -123 -38 -217 -145 -266 -301 -34 -107 -43 -166 -62 -373
-34 -376 -59 -431 -289 -624 -221 -185 -297 -277 -382 -455 -89 -188 -120
-375 -111 -669 6 -195 12 -234 71 -491 17 -75 22 -114 16 -126 -5 -10 -32 -34
-59 -55 -109 -79 -185 -194 -248 -372 -27 -76 -28 -84 -28 -291 l0 -212 -32
-20 c-40 -24 -149 -161 -202 -255 -45 -78 -111 -246 -144 -364 -16 -59 -21
-106 -21 -211 -1 -129 0 -138 27 -193 35 -70 105 -142 187 -193 33 -20 60 -41
60 -46 0 -5 -18 -32 -41 -60 -95 -120 -186 -302 -230 -458 -33 -118 -33 -316
-1 -439 27 -101 77 -209 132 -282 54 -72 202 -222 305 -310 46 -40 96 -89 111
-110 29 -43 30 -80 3 -226 -13 -71 -12 -73 19 -165 38 -110 39 -135 11 -214
-11 -32 -34 -129 -52 -214 -27 -135 -31 -174 -31 -305 1 -133 4 -160 28 -239
37 -124 95 -235 243 -463 220 -340 348 -441 665 -528 95 -26 122 -76 153 -285
19 -132 15 -117 93 -295 124 -283 165 -327 409 -446 89 -43 200 -90 246 -103
198 -58 402 -58 640 0 78 19 170 37 203 41 114 11 122 7 281 -150 79 -78 166
-172 194 -210 88 -117 145 -159 354 -263 302 -149 414 -178 695 -179 267 0
360 26 471 136 l71 69 49 -6 c43 -6 57 -2 132 35 221 111 331 250 373 469 18
95 18 204 -1 317 -8 50 -15 106 -15 126 0 26 -8 43 -30 64 -27 26 -30 35 -30
89 0 75 57 357 110 545 60 212 73 302 67 456 -3 74 -12 152 -21 181 -9 28 -47
99 -86 158 -105 164 -106 201 -7 400 67 134 89 210 102 346 8 89 -12 525 -30
635 -21 133 -79 360 -136 533 -32 99 -48 161 -43 175 3 12 21 43 40 69 18 26
46 71 61 100 26 50 28 60 27 178 0 109 -4 136 -28 210 -45 135 -107 245 -197
351 l-31 37 64 78 c74 92 111 153 141 232 21 55 22 71 22 432 1 206 -3 483 -7
615 -6 220 -10 250 -37 358 -33 130 -162 459 -245 626 -75 149 -74 143 -21
165 129 53 271 309 304 550 14 97 14 519 1 646 -6 52 -21 133 -34 180 -25 86
-76 304 -76 323 0 6 27 36 60 68 59 56 60 59 60 111 0 118 -46 216 -136 296
l-56 49 35 22 c82 50 224 238 252 334 30 102 14 240 -41 350 -24 46 -111 193
-201 339 -43 68 -43 108 1 203 60 129 71 189 70 385 0 260 -34 371 -149 486
-50 51 -83 72 -190 124 -72 34 -159 80 -194 103 -59 38 -68 41 -145 43 -44 1
-132 -2 -194 -6z m253 -140 c237 -83 352 -164 414 -293 91 -191 100 -468 20
-669 -11 -29 -22 -55 -24 -57 -2 -2 -37 23 -77 56 -40 33 -109 86 -153 118
-44 32 -108 82 -142 111 -83 71 -115 87 -147 74 -32 -12 -34 -45 -6 -99 26
-51 82 -98 182 -152 169 -91 269 -187 400 -384 99 -150 165 -283 179 -359 20
-111 -18 -226 -123 -368 -88 -120 -153 -138 -285 -80 -40 18 -103 45 -140 61
-38 16 -108 42 -158 57 -81 25 -105 28 -235 28 -156 0 -270 -18 -446 -70 -49
-15 -138 -39 -197 -55 -59 -16 -118 -34 -130 -40 -36 -19 -67 -51 -67 -71 0
-15 8 -18 55 -18 82 0 182 23 345 81 173 60 262 79 380 79 116 0 233 -21 379
-69 217 -72 388 -167 445 -249 41 -60 42 -101 7 -216 -49 -158 -41 -258 39
-496 57 -167 70 -269 70 -530 0 -249 -38 -433 -115 -560 -35 -57 -131 -156
-174 -179 -22 -12 -26 -10 -67 37 -42 48 -112 92 -147 92 -44 0 -2 -105 113
-280 100 -151 155 -264 258 -520 115 -289 131 -382 139 -775 6 -367 -7 -645
-37 -740 -98 -310 -320 -498 -822 -694 -210 -83 -314 -178 -221 -204 27 -8 41
-4 97 27 36 20 127 57 203 81 95 31 197 75 329 141 155 79 196 96 218 90 43
-11 114 -90 151 -169 75 -158 83 -265 31 -422 l-32 -100 -30 44 c-57 87 -105
128 -156 136 -53 8 -113 -8 -122 -31 -4 -11 29 -52 102 -127 105 -110 108
-115 170 -251 144 -318 208 -572 219 -866 12 -310 -26 -491 -188 -906 -116
-296 -148 -402 -131 -439 7 -14 20 -25 31 -25 53 0 92 42 126 135 10 28 21 54
25 58 10 11 85 -76 110 -128 43 -88 44 -214 2 -307 -43 -96 -133 -178 -267
-243 -135 -65 -212 -79 -414 -72 -194 6 -293 27 -416 87 -100 49 -170 110
-233 205 -58 86 -78 140 -91 253 -6 45 -15 91 -21 102 -21 39 -68 53 -215 61
-77 5 -155 13 -174 18 -135 41 -198 171 -188 391 6 136 29 217 81 288 68 93
85 154 50 183 -25 21 -58 0 -182 -116 -135 -126 -215 -187 -307 -233 -264
-131 -574 -161 -925 -88 -272 57 -452 137 -565 251 -154 155 -323 513 -386
817 -29 144 -23 274 20 384 17 44 31 89 31 101 0 33 -41 58 -132 83 -287 76
-453 213 -523 429 -25 76 -16 125 38 212 64 106 88 202 67 277 -14 55 -31 67
-73 53 -42 -14 -75 -49 -117 -126 -57 -103 -107 -145 -175 -145 -20 0 -79 18
-131 41 -53 22 -105 39 -117 37 -53 -7 -75 -129 -34 -189 36 -55 81 -70 231
-79 73 -4 142 -13 154 -19 22 -12 34 -43 52 -136 35 -179 241 -383 458 -452
40 -13 88 -23 106 -23 18 0 35 -2 38 -5 3 -3 -3 -34 -14 -68 -71 -230 -1 -524
241 -1005 95 -189 226 -345 355 -421 117 -69 339 -129 571 -151 177 -18 465
-16 569 4 147 28 311 98 443 187 23 16 44 29 47 29 3 0 6 -62 6 -137 0 -168
16 -251 69 -358 48 -97 106 -159 179 -193 50 -23 62 -24 166 -19 61 3 120 7
131 9 16 3 20 -5 27 -48 20 -136 89 -264 203 -379 183 -185 375 -245 740 -232
177 6 283 25 460 81 60 19 111 33 114 31 9 -10 -31 -142 -53 -175 -27 -41
-148 -151 -216 -197 -25 -17 -88 -54 -140 -83 -138 -76 -193 -115 -213 -150
-35 -59 13 -76 114 -41 81 28 140 60 284 155 l130 86 3 -33 c2 -17 19 -113 38
-212 81 -414 28 -582 -251 -798 l-90 -69 -6 71 c-7 68 -33 134 -54 134 -5 0
-30 -41 -55 -91 -55 -111 -103 -162 -195 -207 -101 -50 -173 -66 -315 -72
-148 -6 -261 14 -457 79 -204 67 -280 118 -527 352 -120 113 -243 217 -300
251 -14 8 0 19 71 59 49 27 131 79 183 116 52 37 133 90 180 118 47 28 105 66
129 84 l43 33 86 -85 c132 -130 282 -200 427 -200 37 0 69 6 81 14 37 28 -7
63 -189 154 -141 69 -178 93 -237 149 -103 96 -142 181 -173 375 -19 113 -31
157 -51 193 -15 25 -33 45 -39 42 -7 -2 -20 -19 -30 -38 -26 -49 -18 -175 18
-298 23 -80 26 -99 16 -131 -12 -41 -118 -150 -146 -150 -26 0 -107 45 -190
107 -129 95 -185 200 -185 342 0 106 28 187 116 341 80 139 87 160 57 192 -36
40 -96 14 -200 -84 -61 -57 -146 -99 -255 -127 -99 -25 -154 -28 -251 -11 -84
15 -100 10 -90 -31 10 -35 83 -108 121 -120 33 -9 194 -8 286 3 26 3 31 -1 37
-27 4 -16 14 -47 23 -68 9 -21 30 -97 46 -169 17 -72 41 -151 55 -177 66 -121
186 -228 281 -252 24 -6 44 -14 44 -18 0 -14 -160 -124 -241 -166 -328 -170
-768 -203 -1128 -85 -234 76 -367 192 -477 416 -45 92 -64 147 -108 321 l-52
210 140 6 c127 5 286 26 330 43 13 5 16 -1 16 -37 0 -140 51 -275 129 -349
103 -97 245 -135 481 -128 104 3 142 7 167 21 61 33 67 84 13 112 -21 11 -63
15 -157 15 -225 0 -324 29 -412 119 -66 67 -101 140 -101 208 0 47 4 57 38 94
20 23 82 76 137 117 184 139 267 224 285 292 13 47 5 70 -25 70 -30 0 -79 -37
-209 -159 -258 -240 -448 -312 -793 -298 -295 11 -533 117 -705 313 -118 134
-275 420 -322 586 -59 206 -48 450 28 633 l14 33 65 -23 c138 -50 368 -83 462
-66 90 17 137 75 75 92 -14 4 -63 8 -110 8 -246 4 -374 71 -457 239 -46 92
-54 176 -30 310 38 207 41 201 -120 279 -92 44 -145 77 -191 118 -247 224
-350 561 -268 875 15 58 40 134 55 170 25 61 141 245 165 263 22 16 118 -4
219 -44 91 -37 114 -42 213 -48 l112 -7 54 -42 c64 -49 145 -144 289 -337 188
-253 310 -359 472 -411 139 -44 377 -44 377 1 0 20 -56 60 -118 84 -29 12
-114 37 -188 56 -241 62 -314 116 -480 358 -127 186 -149 229 -158 307 -6 50
-13 68 -36 91 -34 35 -76 37 -212 12 -85 -15 -95 -15 -162 1 -82 19 -268 106
-365 170 -92 62 -185 161 -221 238 -26 55 -30 74 -30 149 0 112 32 228 102
369 43 85 67 120 129 183 100 101 110 101 183 5 74 -98 122 -142 179 -163 26
-10 52 -25 57 -34 5 -9 18 -68 30 -131 12 -63 26 -123 32 -135 21 -40 172
-261 210 -307 49 -59 125 -98 190 -98 41 0 50 3 59 24 20 43 -14 91 -126 176
-143 108 -213 219 -250 395 -31 150 -14 303 56 480 56 146 102 217 212 332
107 112 116 136 58 141 -59 6 -97 -7 -146 -50 -119 -105 -229 -308 -291 -537
-15 -53 -28 -99 -31 -104 -8 -13 -63 26 -107 74 -162 180 -195 505 -76 755 33
69 129 179 186 214 42 27 52 22 118 -61 61 -76 132 -118 174 -103 48 17 39 45
-35 120 -79 80 -129 169 -191 340 -57 156 -82 281 -89 459 -10 255 23 438 112
620 61 124 120 199 294 367 207 201 250 219 379 154 96 -48 137 -60 161 -47
34 19 35 47 0 135 -39 101 -43 106 -93 132 -79 40 -78 38 -67 314 10 267 22
330 82 436 39 68 127 150 195 180 95 42 296 81 324 64 13 -8 10 -24 -19 -106
-24 -70 -36 -126 -42 -198 -13 -160 -11 -238 7 -264 17 -24 56 -29 73 -9 6 7
17 75 26 150 8 75 19 156 25 181 9 43 39 138 45 144 2 2 16 -3 32 -11 16 -9
45 -18 66 -22 57 -11 86 25 121 150 15 55 34 110 41 121 21 34 200 120 275
134 121 22 169 63 119 103 -19 15 -33 18 -72 13 -79 -11 -212 -62 -397 -154
-96 -48 -178 -88 -182 -90 -9 -4 -62 164 -78 246 -19 92 -8 223 23 299 56 137
204 345 306 432 130 109 248 151 423 151 169 0 375 -64 534 -166 34 -21 69
-43 78 -49 15 -9 12 -18 -20 -87 -46 -95 -61 -104 -194 -100 -81 2 -100 -1
-128 -18 -41 -25 -38 -39 14 -65 32 -16 59 -20 154 -20 l115 0 14 -40 c9 -27
15 -119 20 -293 6 -236 7 -255 25 -268 40 -29 83 -9 115 53 17 34 13 133 -14
318 -29 196 -31 287 -10 370 41 158 175 305 364 399 89 45 243 99 319 111 l43
7 -39 -79 c-49 -96 -77 -187 -86 -275 -9 -78 -27 -106 -85 -133 -33 -14 -47
-29 -68 -74 -24 -47 -27 -67 -26 -141 2 -210 105 -314 308 -314 86 0 309 30
338 45 21 12 22 42 2 59 -12 10 -34 11 -88 5 -144 -17 -197 -13 -257 21 -78
44 -120 102 -120 165 0 45 4 54 39 88 41 40 54 80 67 201 20 199 133 425 261
522 91 69 156 89 273 84 68 -3 109 -13 205 -46z"/>
<path d="M3547 11085 c-83 -31 -185 -124 -257 -236 -57 -88 -73 -172 -69 -358
l4 -148 -40 4 c-119 12 -205 27 -259 44 -68 21 -102 24 -111 9 -12 -19 24
-115 52 -142 55 -52 159 -73 280 -57 101 15 120 8 198 -67 94 -92 196 -131
363 -141 56 -3 104 -9 107 -12 2 -4 -8 -49 -21 -101 -29 -112 -30 -213 -2
-218 9 -2 34 14 56 36 30 30 45 58 67 128 35 112 42 125 105 204 96 120 125
210 67 210 -27 0 -50 -15 -139 -91 -36 -31 -76 -60 -87 -64 -50 -16 -266 71
-374 151 -124 91 -159 262 -94 466 26 83 61 139 141 225 74 81 127 153 120
164 -8 13 -63 10 -107 -6z"/>
<path d="M4867 10239 c-66 -44 -131 -119 -172 -201 -42 -84 -44 -110 -10 -136
l25 -20 -78 -7 c-114 -11 -216 -39 -317 -89 -189 -94 -287 -209 -474 -556
-133 -246 -212 -350 -339 -452 -179 -142 -343 -174 -552 -109 -91 29 -151 67
-254 160 -50 45 -95 81 -102 81 -20 0 -64 -100 -64 -145 0 -142 224 -233 654
-266 l154 -12 -20 -38 c-28 -55 -34 -141 -14 -219 23 -91 83 -213 145 -293
l53 -68 -47 -50 c-209 -223 -121 -585 177 -727 125 -60 200 -76 359 -76 l135
-1 12 -150 c6 -82 13 -158 14 -168 2 -15 -11 -23 -72 -41 -304 -90 -552 -380
-577 -673 -7 -73 -3 -72 -113 -42 -208 56 -372 27 -752 -135 l-36 -16 -22 64
c-27 81 -102 189 -166 239 -112 87 -252 131 -419 132 -92 0 -116 -3 -140 -19
l-28 -19 25 -13 c14 -7 86 -24 162 -38 155 -28 225 -56 290 -116 62 -57 100
-120 146 -242 67 -175 112 -188 255 -73 84 68 253 135 394 156 138 20 365 -13
399 -58 7 -11 12 -50 12 -106 0 -88 33 -266 67 -365 25 -70 127 -122 183 -92
31 17 22 51 -42 162 -69 121 -98 225 -105 390 -7 146 4 217 49 325 94 227 275
397 480 449 158 41 271 -19 408 -216 96 -137 121 -142 264 -46 117 79 147 89
239 84 94 -4 145 -34 234 -136 87 -99 143 -144 185 -146 l33 -1 -1 65 c-1 82
-36 162 -96 222 -121 122 -321 138 -618 49 -36 -10 -73 -22 -82 -26 -13 -5
-23 6 -47 52 -74 145 -194 223 -348 223 l-51 0 -7 117 c-14 216 17 295 173
450 108 107 120 131 78 158 -22 14 -28 14 -79 -5 -96 -36 -160 -94 -232 -212
-16 -26 -40 -53 -54 -60 -49 -26 -240 -4 -362 41 -139 52 -220 131 -260 250
-30 88 -22 128 52 268 74 142 74 150 -7 270 -104 155 -132 256 -114 411 20
169 44 211 213 391 126 133 170 197 272 400 254 503 457 632 974 618 102 -3
195 -1 208 4 30 11 29 40 -3 70 -24 23 -32 24 -160 24 -83 0 -134 4 -134 10 1
41 45 168 78 224 48 80 59 116 42 136 -17 20 -20 20 -73 -16z"/>
<path d="M2509 10147 c-52 -113 -72 -229 -73 -432 -1 -124 3 -199 13 -242 25
-106 -9 -171 -198 -380 l-110 -122 -56 98 c-105 185 -143 340 -125 499 20 178
64 284 151 368 69 65 89 92 89 117 0 16 -5 18 -32 12 -65 -14 -148 -68 -216
-140 -103 -108 -115 -140 -122 -317 -3 -80 -7 -148 -10 -150 -3 -3 -61 -10
-130 -16 -69 -6 -172 -23 -230 -37 -198 -48 -257 -85 -246 -153 12 -79 57 -82
176 -12 120 71 168 83 307 78 79 -3 117 -8 123 -17 4 -7 10 -34 14 -60 7 -55
118 -254 178 -319 41 -45 42 -49 13 -117 -7 -16 -47 -70 -89 -118 -88 -102
-140 -199 -195 -361 l-37 -112 -90 85 c-101 97 -178 143 -280 167 -109 26
-304 6 -304 -30 0 -34 78 -66 160 -66 56 0 151 -24 205 -51 22 -11 63 -42 90
-68 28 -26 74 -67 104 -90 91 -70 88 -55 61 -261 -19 -150 1 -390 47 -550 20
-72 77 -195 108 -236 14 -18 25 -35 25 -38 0 -2 -15 -7 -32 -11 -61 -12 -192
-83 -260 -139 -56 -47 -74 -69 -110 -142 -36 -74 -43 -97 -43 -148 0 -60 1
-61 29 -64 39 -5 79 36 177 179 82 121 104 141 217 198 101 51 110 47 199 -72
71 -95 201 -212 306 -275 79 -48 204 -100 270 -113 48 -10 60 -9 82 5 58 38
25 73 -139 150 -379 178 -634 472 -735 848 -97 358 12 833 282 1233 37 55 112
141 192 221 121 121 138 134 242 187 66 34 122 70 138 89 24 28 27 38 21 81
-3 30 -28 98 -63 171 -58 121 -58 121 -58 216 0 78 7 122 39 246 42 163 43
200 5 248 -31 40 -47 32 -80 -37z"/>
<path d="M4815 9198 c-38 -14 -107 -60 -214 -142 -171 -132 -247 -157 -391
-131 -50 10 -94 15 -96 12 -3 -3 -7 -28 -7 -56 -2 -61 21 -97 83 -128 36 -19
61 -23 133 -23 105 0 144 -15 181 -68 55 -81 102 -230 112 -361 6 -84 -5 -158
-52 -338 -27 -106 -31 -113 -64 -131 -19 -11 -57 -23 -84 -27 -47 -6 -96 -40
-96 -65 0 -15 118 -13 321 7 166 15 179 15 230 -1 78 -25 174 -85 259 -161 92
-83 130 -103 168 -89 60 22 13 103 -126 215 -129 104 -233 139 -419 139 -57 0
-103 2 -103 4 0 3 9 20 20 39 47 80 90 251 90 360 0 157 -39 286 -125 410 -86
128 -86 126 -7 210 32 34 79 88 106 119 28 34 73 73 109 94 71 41 107 72 107
90 0 31 -75 43 -135 22z"/>
<path d="M4164 5192 c-85 -47 -109 -86 -125 -199 -22 -155 4 -309 66 -393 32
-44 23 -50 -83 -50 -145 0 -394 63 -524 132 -37 20 -91 64 -142 116 -125 129
-166 142 -166 53 0 -95 31 -137 174 -234 210 -141 359 -178 741 -181 l190 -1
80 39 c117 58 146 56 315 -21 163 -73 257 -103 330 -106 61 -1 120 18 120 39
0 28 -59 53 -263 109 -46 13 -72 29 -128 80 -96 88 -144 103 -284 86 -156 -18
-163 -17 -205 27 -43 46 -73 132 -73 212 0 34 12 93 32 157 18 56 31 113 29
125 -4 29 -42 34 -84 10z"/>
<path d="M2445 4983 c-68 -72 -90 -135 -149 -417 -53 -255 -61 -323 -47 -401
23 -125 100 -220 225 -279 105 -50 163 -61 321 -61 l140 0 78 37 c42 20 77 42
77 48 0 21 32 9 82 -31 106 -83 297 -162 498 -205 206 -44 526 -44 735 2 39 8
82 17 97 21 l27 5 -6 -129 c-5 -115 -3 -138 15 -200 42 -138 144 -205 313
-207 72 -1 90 2 108 18 45 40 17 75 -124 156 -124 71 -154 96 -176 144 -22 48
-26 180 -8 251 11 42 15 46 121 107 139 80 270 178 298 223 28 45 21 78 -19
95 -39 16 -56 6 -156 -89 -129 -123 -229 -182 -416 -244 -197 -66 -404 -83
-614 -52 -271 41 -461 123 -611 266 -76 72 -102 80 -152 46 -103 -71 -220
-101 -374 -95 -93 3 -111 7 -171 36 -80 40 -138 102 -168 181 -18 48 -20 71
-16 156 4 89 11 120 65 282 68 203 86 297 65 337 -17 33 -26 33 -58 -1z"/>
<path d="M6888 12790 c-14 -4 -46 -21 -70 -38 -25 -17 -107 -61 -183 -97 -117
-57 -148 -76 -200 -128 -115 -118 -149 -228 -150 -487 0 -196 11 -255 71 -385
44 -95 44 -135 1 -206 -19 -30 -64 -102 -100 -160 -127 -205 -157 -287 -157
-419 0 -55 7 -90 23 -130 43 -104 169 -265 244 -311 l35 -22 -56 -49 c-89 -78
-136 -178 -136 -290 0 -59 13 -88 52 -113 17 -11 40 -32 51 -46 19 -26 19 -27
-3 -125 -12 -55 -35 -146 -51 -204 -16 -58 -33 -148 -39 -200 -13 -127 -13
-549 1 -646 34 -243 174 -497 304 -550 53 -22 54 -16 -21 -165 -74 -148 -208
-485 -239 -599 -14 -52 -30 -135 -35 -183 -15 -131 -23 -1107 -9 -1182 15 -86
67 -187 148 -288 39 -48 71 -90 71 -93 0 -3 -14 -19 -31 -37 -76 -80 -149
-210 -195 -347 -24 -74 -28 -101 -28 -210 -1 -118 1 -128 27 -179 16 -29 41
-70 56 -92 58 -79 58 -80 2 -250 -128 -392 -161 -595 -163 -1012 -2 -273 6
-317 99 -503 99 -199 98 -237 -7 -400 -88 -135 -101 -175 -107 -339 -6 -154 7
-245 67 -456 53 -188 110 -470 110 -545 0 -54 -3 -63 -30 -89 -22 -21 -30 -38
-30 -64 0 -20 -7 -76 -15 -126 -19 -113 -19 -222 -1 -317 42 -219 152 -358
373 -469 75 -37 89 -41 132 -35 l49 6 71 -69 c111 -110 204 -136 471 -136 281
1 393 30 695 179 209 104 266 146 354 263 28 38 115 132 194 210 159 157 167
161 281 150 33 -4 125 -22 203 -41 238 -58 442 -58 640 0 46 13 157 60 246
103 244 119 285 163 409 446 78 178 74 163 93 295 31 209 58 259 153 285 316
86 445 188 663 525 138 212 206 338 237 441 32 102 46 221 39 328 -7 108 -56
367 -87 455 -27 79 -25 104 12 214 31 92 32 94 19 165 -27 146 -26 183 3 226
15 22 62 68 104 104 99 84 260 247 312 317 90 120 145 277 157 447 15 226 -79
496 -252 724 -25 33 -45 63 -45 68 0 4 27 25 60 45 82 51 152 123 187 193 27
55 28 64 27 193 0 105 -5 152 -21 211 -33 118 -99 286 -144 364 -53 94 -162
231 -202 255 l-32 20 0 212 c0 207 -1 215 -28 291 -63 178 -139 293 -248 372
-27 21 -54 45 -59 55 -6 12 -1 51 16 126 59 257 65 296 71 491 9 294 -22 481
-111 669 -85 178 -161 270 -382 455 -231 194 -255 246 -289 624 -19 207 -28
266 -62 373 -49 156 -143 263 -266 301 -34 10 -109 22 -167 26 -193 13 -218
53 -165 256 30 115 32 206 5 316 -37 157 -124 305 -259 446 -183 191 -382 277
-633 277 -179 0 -326 -40 -478 -130 -162 -95 -182 -94 -310 26 -74 69 -111 95
-184 129 -132 63 -235 95 -371 116 -101 16 -125 23 -160 49 -115 87 -173 105
-380 120 -161 11 -210 11 -247 0z m402 -122 c175 -79 312 -296 349 -553 24
-166 30 -185 73 -227 39 -38 40 -41 36 -94 -6 -67 -40 -114 -118 -158 -60 -34
-113 -38 -257 -21 -54 6 -76 5 -88 -5 -20 -17 -19 -47 3 -59 28 -15 251 -45
337 -45 203 0 306 105 308 314 1 74 -2 94 -26 141 -21 45 -35 60 -68 74 -58
27 -76 55 -84 133 -8 81 -43 188 -91 284 l-36 71 39 -7 c21 -4 83 -21 138 -37
294 -91 496 -266 551 -480 20 -77 15 -206 -16 -403 -22 -144 -26 -246 -9 -279
32 -62 75 -82 115 -53 18 13 19 32 25 268 5 173 11 266 20 293 l14 40 115 0
c94 0 122 4 154 20 52 26 55 40 14 65 -28 17 -47 20 -128 18 -133 -4 -148 5
-194 100 -32 69 -35 78 -20 87 9 6 44 28 78 49 286 183 634 218 856 86 151
-89 353 -344 415 -525 23 -66 31 -200 15 -278 -16 -81 -69 -249 -78 -245 -4 2
-86 42 -182 90 -185 92 -318 143 -397 154 -39 5 -53 2 -72 -13 -50 -40 -2 -81
119 -103 75 -14 254 -100 275 -134 7 -11 26 -66 41 -121 29 -104 63 -155 101
-155 16 1 58 14 103 34 12 5 19 -3 27 -26 27 -75 44 -166 58 -294 8 -75 19
-142 26 -150 17 -21 56 -17 73 8 18 26 20 104 7 264 -6 72 -18 128 -42 198
-29 82 -32 98 -19 106 17 11 75 4 188 -21 203 -46 319 -149 379 -337 23 -69
26 -102 34 -322 11 -278 11 -276 -70 -315 -43 -21 -67 -59 -107 -171 -17 -50
-17 -53 0 -79 23 -34 48 -30 164 25 153 73 182 61 422 -179 193 -194 245 -267
306 -429 57 -154 69 -232 68 -462 0 -237 -16 -334 -86 -524 -62 -171 -112
-260 -191 -340 -75 -76 -83 -103 -33 -121 41 -14 108 26 172 105 28 34 58 67
68 72 23 13 71 -19 143 -95 108 -116 163 -270 163 -457 0 -177 -49 -322 -146
-429 -44 -49 -99 -87 -107 -74 -3 5 -13 37 -22 73 -61 237 -176 456 -295 563
-53 48 -90 61 -151 55 -58 -5 -49 -29 58 -141 110 -115 156 -186 212 -332 94
-239 94 -447 2 -640 -55 -115 -88 -154 -198 -237 -110 -82 -144 -131 -124
-174 9 -21 18 -24 59 -24 65 0 141 39 190 98 38 46 189 267 210 307 6 12 20
72 32 135 12 63 25 122 30 131 5 9 31 24 57 34 57 21 105 65 179 163 68 89 81
91 159 20 144 -131 255 -383 255 -577 0 -75 -4 -94 -30 -149 -36 -77 -129
-176 -221 -238 -97 -64 -283 -151 -365 -170 -67 -16 -77 -16 -162 -1 -136 25
-178 23 -212 -12 -23 -23 -30 -41 -36 -91 -9 -78 -31 -121 -158 -307 -166
-242 -239 -296 -480 -358 -74 -19 -159 -44 -188 -56 -62 -24 -118 -64 -118
-84 0 -45 238 -45 376 -1 161 52 273 147 457 391 166 220 241 308 305 357 l54
42 112 7 c99 6 122 11 213 47 116 47 194 62 219 41 30 -25 138 -193 165 -259
138 -329 100 -662 -107 -931 -80 -104 -158 -165 -297 -232 -161 -78 -158 -72
-120 -279 22 -126 15 -217 -24 -300 -81 -172 -219 -247 -454 -248 -138 0 -173
-18 -129 -65 35 -37 114 -50 233 -36 128 14 234 37 314 66 l65 23 14 -33 c75
-181 87 -429 29 -631 -33 -114 -134 -320 -223 -454 -196 -294 -446 -433 -805
-447 -340 -14 -547 63 -787 292 -155 149 -227 193 -244 149 -10 -26 12 -88 47
-132 41 -53 116 -119 242 -214 55 -41 117 -94 138 -117 33 -37 37 -47 37 -94
0 -67 -35 -140 -99 -206 -90 -92 -185 -121 -404 -121 -102 0 -145 -4 -167 -15
-54 -28 -48 -79 13 -112 25 -14 63 -18 167 -21 236 -7 378 31 481 128 78 74
129 209 129 349 0 36 3 42 16 37 44 -17 203 -38 329 -43 l140 -6 -51 -207
c-115 -462 -271 -650 -627 -754 -156 -45 -282 -59 -472 -53 -242 8 -419 52
-615 153 -80 41 -240 151 -240 165 0 4 20 12 44 18 95 24 215 131 281 252 14
26 38 105 55 177 16 72 37 148 46 169 9 21 19 52 23 68 6 26 11 30 37 27 92
-11 253 -12 286 -3 38 12 111 85 121 120 10 41 -6 46 -90 31 -96 -17 -150 -15
-250 11 -110 28 -195 70 -256 127 -103 97 -159 121 -199 85 -33 -29 -23 -58
75 -229 119 -206 129 -386 29 -533 -53 -78 -252 -221 -307 -221 -28 0 -134
109 -146 150 -10 32 -7 51 16 131 36 123 44 249 18 298 -10 19 -23 36 -30 38
-6 3 -24 -17 -39 -42 -20 -36 -32 -80 -51 -193 -29 -180 -70 -276 -155 -359
-73 -72 -80 -77 -262 -168 -175 -88 -219 -124 -182 -151 12 -8 44 -14 81 -14
145 0 295 70 427 200 l86 85 43 -33 c24 -18 88 -60 142 -93 54 -32 138 -87
186 -122 49 -34 125 -82 170 -107 l81 -46 -64 -43 c-35 -23 -146 -119 -247
-212 -266 -249 -324 -288 -534 -358 -194 -64 -307 -84 -455 -78 -142 6 -214
22 -315 72 -92 45 -140 96 -195 207 -25 50 -49 92 -55 91 -21 0 -47 -66 -54
-134 l-6 -71 -90 69 c-279 216 -332 383 -251 798 19 99 36 195 38 213 l3 32
120 -81 c221 -148 377 -210 415 -164 9 11 8 20 -7 45 -20 35 -75 74 -213 150
-52 29 -115 66 -140 83 -68 46 -189 156 -216 197 -22 33 -62 165 -53 175 3 2
54 -12 114 -31 180 -57 283 -75 467 -81 362 -12 551 47 733 232 114 115 183
243 203 379 7 43 11 51 27 48 11 -2 70 -6 131 -9 104 -5 116 -4 166 19 69 32
127 92 172 177 57 110 68 159 73 343 3 93 7 168 9 168 2 0 34 -20 71 -44 223
-143 393 -190 689 -188 386 1 696 59 870 163 184 109 321 312 502 744 120 284
149 503 93 684 -10 33 -16 63 -13 66 3 3 20 5 38 5 17 0 63 9 100 21 218 67
429 272 463 451 18 94 29 122 53 137 13 8 72 16 154 21 151 9 194 24 232 80
20 29 23 43 19 88 -7 62 -29 102 -58 102 -11 0 -62 -18 -114 -40 -52 -22 -110
-40 -130 -40 -70 0 -118 42 -180 153 -57 103 -131 150 -170 107 -16 -17 -19
-36 -19 -93 1 -89 14 -129 76 -237 55 -96 59 -125 27 -218 -68 -203 -238 -338
-519 -413 -60 -16 -93 -31 -113 -50 l-27 -28 21 -53 c45 -111 50 -136 56 -233
4 -79 1 -121 -16 -203 -63 -304 -232 -662 -386 -817 -113 -114 -293 -194 -565
-251 -351 -73 -661 -43 -925 88 -92 46 -172 107 -307 233 -128 120 -159 139
-185 112 -29 -29 -18 -76 41 -161 68 -101 86 -161 93 -306 10 -220 -52 -350
-188 -391 -19 -5 -97 -13 -174 -18 -147 -8 -194 -22 -215 -61 -6 -11 -15 -57
-21 -102 -13 -113 -33 -167 -91 -253 -63 -95 -133 -156 -233 -205 -138 -68
-229 -84 -455 -85 -178 0 -201 2 -265 23 -182 61 -323 169 -377 290 -42 93
-41 219 2 307 26 53 100 139 110 128 4 -4 13 -26 20 -48 36 -118 131 -188 162
-120 17 37 -15 143 -126 425 -99 250 -144 393 -173 550 -25 133 -24 476 1 610
42 227 97 403 198 626 62 136 65 141 170 251 73 75 106 116 102 127 -9 23 -69
39 -122 31 -51 -8 -99 -49 -156 -136 l-30 -44 -32 100 c-25 74 -33 118 -34
171 0 125 64 288 145 369 71 71 72 71 289 -39 132 -66 234 -110 329 -141 76
-24 167 -61 203 -81 56 -31 70 -35 97 -27 97 27 -9 120 -246 213 -480 189
-700 378 -797 685 -30 96 -44 376 -36 750 7 390 23 474 138 765 103 257 158
369 259 522 81 124 129 221 129 263 0 41 -103 -8 -164 -77 l-44 -51 -34 21
c-47 29 -139 127 -171 182 -70 121 -107 311 -107 550 0 261 13 363 70 530 80
237 88 338 40 495 -36 116 -37 135 -9 193 43 88 219 193 457 271 148 49 265
71 382 71 118 0 207 -19 380 -79 163 -58 263 -81 345 -81 47 0 55 3 55 19 0
30 -56 69 -128 90 -37 10 -123 35 -192 54 -180 52 -232 64 -351 81 -237 35
-376 11 -644 -112 -192 -87 -246 -77 -349 64 -102 140 -137 248 -117 360 14
76 80 209 179 359 131 197 231 293 400 384 136 73 208 152 200 219 -3 23 -8
27 -39 30 -31 3 -46 -5 -100 -48 -35 -28 -107 -83 -159 -122 -52 -40 -128 -98
-168 -131 -40 -33 -75 -58 -77 -56 -8 9 -46 114 -56 157 -59 259 -2 549 135
685 77 77 238 155 441 213 75 21 206 13 275 -18z"/>
<path d="M8366 11092 c-7 -12 44 -81 120 -165 80 -86 115 -142 141 -225 65
-204 30 -375 -94 -466 -108 -80 -324 -167 -374 -151 -11 4 -51 33 -87 64 -89
76 -112 91 -139 91 -34 0 -39 -39 -12 -91 12 -24 50 -80 84 -126 53 -68 69
-99 96 -184 26 -83 40 -110 71 -141 22 -22 47 -38 56 -36 28 5 27 106 -2 218
-13 52 -23 97 -21 101 3 3 51 9 107 12 167 10 268 49 365 142 79 75 96 80 196
66 121 -16 225 5 280 57 28 27 64 123 52 142 -9 15 -43 12 -112 -10 -34 -10
-102 -24 -150 -30 -48 -6 -102 -12 -118 -14 l-30 -4 4 149 c4 197 -11 271 -80
374 -57 84 -151 175 -216 206 -51 25 -127 36 -137 21z"/>
<path d="M7080 10255 c-17 -20 -6 -56 41 -136 32 -54 79 -189 79 -228 0 -3
-60 -6 -134 -6 -128 0 -136 -1 -160 -24 -32 -30 -33 -59 -3 -70 13 -5 106 -7
208 -4 347 10 538 -47 699 -207 97 -96 176 -216 280 -421 100 -198 141 -257
278 -402 159 -168 183 -215 202 -392 17 -146 -12 -245 -113 -396 -82 -121 -82
-130 -8 -271 33 -64 63 -134 67 -156 9 -57 -26 -164 -74 -227 -79 -104 -269
-181 -466 -187 -88 -4 -112 7 -151 70 -72 118 -136 176 -232 212 -51 19 -57
19 -79 5 -42 -27 -30 -51 79 -158 155 -155 186 -234 172 -450 l-7 -117 -51 0
c-154 0 -275 -78 -347 -221 -25 -48 -35 -59 -48 -54 -85 35 -258 73 -365 81
-245 18 -416 -109 -434 -322 -6 -69 1 -79 50 -69 23 5 63 39 147 125 137 140
171 160 272 160 86 0 118 -13 236 -93 129 -88 162 -81 251 53 60 89 136 167
196 198 42 22 63 26 130 26 209 -1 426 -168 546 -420 59 -124 72 -194 66 -354
-7 -173 -34 -274 -105 -398 -64 -111 -73 -145 -42 -162 56 -30 158 22 183 92
33 95 67 283 66 371 0 52 4 94 11 102 35 43 268 75 401 56 152 -23 302 -85
416 -172 127 -97 172 -80 233 90 37 104 70 161 128 223 66 71 142 104 306 134
77 14 150 31 164 38 l25 13 -28 19 c-24 16 -48 19 -140 19 -292 -1 -512 -144
-590 -382 l-16 -53 -37 16 c-380 162 -544 191 -752 135 -109 -30 -106 -31
-113 42 -28 297 -273 583 -577 673 -61 18 -74 26 -72 41 1 10 8 86 14 168 l11
150 136 1 c159 0 234 16 359 76 298 142 386 504 177 727 l-47 50 49 63 c55 72
112 178 139 258 27 81 25 203 -3 256 l-22 41 155 12 c430 33 654 124 654 268
0 43 -45 143 -64 143 -6 0 -52 -36 -101 -81 -105 -93 -165 -131 -255 -160
-209 -65 -373 -33 -552 109 -130 104 -202 201 -353 477 -102 187 -155 271
-215 340 -138 161 -335 259 -562 280 l-78 7 25 20 c34 26 32 52 -10 136 -41
82 -106 157 -172 201 -53 36 -56 36 -73 16z"/>
<path d="M9431 10184 c-37 -47 -37 -86 3 -243 42 -171 53 -267 36 -331 -6 -25
-34 -94 -62 -154 -30 -64 -53 -128 -56 -155 -6 -67 24 -98 161 -168 104 -53
121 -66 243 -187 148 -148 239 -276 330 -461 296 -609 219 -1174 -215 -1588
-111 -105 -223 -181 -377 -253 -164 -77 -197 -112 -139 -150 22 -14 34 -15 82
-5 191 38 441 207 576 388 89 119 98 123 199 72 113 -57 135 -77 217 -198 98
-143 138 -184 177 -179 28 3 29 4 29 64 0 87 -63 214 -138 278 -73 62 -157
111 -236 137 -36 12 -67 23 -69 24 -2 2 11 23 28 48 81 121 133 297 151 517
11 128 7 227 -17 382 -10 60 2 82 68 133 35 27 89 73 120 102 78 73 180 113
291 113 79 0 157 33 157 66 0 36 -195 56 -304 30 -102 -24 -179 -70 -280 -167
l-90 -85 -37 112 c-54 162 -107 259 -195 361 -79 91 -97 119 -108 166 -5 22 0
34 32 70 60 65 171 263 178 318 10 76 7 74 161 74 129 0 142 -2 195 -27 32
-15 78 -41 104 -58 51 -36 115 -50 139 -30 23 19 30 76 11 104 -36 55 -249
119 -466 138 -69 6 -127 13 -130 16 -3 2 -7 70 -10 150 -7 177 -19 209 -122
317 -68 72 -151 126 -215 140 -30 6 -33 5 -33 -18 0 -18 21 -46 74 -97 86 -83
125 -157 151 -285 44 -211 11 -384 -116 -607 l-50 -87 -106 117 c-131 146
-189 225 -204 284 -11 39 -10 58 6 126 15 67 17 106 12 244 -7 184 -29 304
-76 405 -33 69 -49 77 -80 37z"/>
<path d="M7084 9196 c-27 -21 -12 -42 66 -91 67 -42 104 -76 210 -195 82 -92
100 -119 92 -139 -3 -9 -34 -58 -68 -109 -85 -124 -124 -253 -124 -409 0 -109
43 -280 90 -360 11 -19 20 -36 20 -39 0 -2 -46 -4 -102 -4 -187 0 -291 -35
-420 -139 -139 -112 -186 -193 -126 -215 38 -14 76 6 168 89 85 76 181 136
259 161 51 16 64 16 230 1 200 -19 307 -22 316 -7 12 20 -41 58 -91 65 -27 4
-65 16 -84 27 -33 18 -37 25 -64 131 -47 180 -58 254 -52 338 10 131 57 280
112 361 37 53 76 68 181 68 72 0 97 4 133 23 62 31 85 67 83 128 0 28 -4 53
-7 56 -2 3 -46 -2 -96 -12 -144 -26 -220 -1 -391 131 -158 122 -217 154 -284
154 -17 0 -40 -6 -51 -14z"/>
<path d="M7777 5203 c-13 -12 -7 -50 24 -144 51 -157 37 -289 -41 -371 -42
-44 -49 -45 -205 -27 -140 17 -188 2 -284 -86 -56 -51 -82 -67 -128 -80 -204
-56 -263 -81 -263 -109 0 -21 59 -40 120 -39 73 3 167 33 330 106 169 77 198
79 315 21 l80 -39 190 1 c382 3 531 40 741 181 143 97 174 139 174 234 0 89
-41 76 -166 -53 -51 -52 -105 -96 -142 -116 -130 -69 -379 -132 -524 -132
-106 0 -115 6 -83 50 54 74 69 133 69 280 0 154 -11 205 -56 256 -47 53 -129
90 -151 67z"/>
<path d="M9517 4984 c-21 -40 -3 -134 65 -337 54 -162 61 -193 65 -282 4 -85
2 -108 -16 -156 -30 -79 -88 -141 -168 -181 -60 -29 -78 -33 -171 -36 -154 -6
-271 24 -374 95 -50 34 -76 26 -152 -46 -150 -143 -340 -225 -611 -266 -210
-31 -417 -14 -614 52 -187 62 -287 121 -416 244 -100 95 -117 105 -156 89 -40
-17 -47 -50 -19 -95 28 -45 159 -143 298 -223 106 -61 110 -65 121 -107 18
-71 14 -203 -8 -251 -22 -48 -52 -73 -176 -144 -141 -81 -169 -116 -124 -156
18 -16 36 -19 108 -18 169 2 271 69 313 207 18 62 20 85 15 200 l-6 129 27 -5
c15 -4 59 -13 97 -21 209 -46 529 -46 735 -2 201 43 392 122 498 205 50 40 82
52 82 31 0 -6 35 -28 78 -48 l77 -37 140 0 c158 0 216 11 321 61 125 59 202
154 225 279 14 78 6 146 -47 401 -59 280 -82 345 -148 417 -31 34 -42 34 -59
1z"/>
</g>
</svg>
